{
  "accessors": [
    {
      "bufferView": 0,
      "componentType": 5126,
      "count": 24,
      "type": "VEC3",
      "max": [
        0.5,
        0.5,
        0.5
      ],
      "min": [
        -0.5,
        -0.5,
        -0.5
      ]
    },
    {
      "bufferView": 1,
      "componentType": 5126,
      "count": 24,
      "type": "VEC3",
      "max": [
        1.0,
        1.0,
        1.0
      ],
      "min": [
        -1.0,
        -1.0,
        -1.0
      ]
    },
    {
      "bufferView": 2,
      "componentType": 5126,
      "count": 24,
      "type": "VEC4",
      "max": [
        0.0,
        0.0,
        1.0,
        -1.0
      ],
      "min": [
        -1.0,
        0.0,
        -1.0,
        -1.0
      ]
    },
    {
      "bufferView": 3,
      "componentType": 5126,
      "count": 24,
      "type": "VEC2",
      "max": [
        1.0,
        1.0
      ],
      "min": [
        0.0,
        0.0
      ]
    },
    {
      "bufferView": 4,
      "componentType": 5126,
      "count": 24,
      "type": "VEC2",
      "max": [
        0.9966580867767334,
        0.65283584594726563
      ],
      "min": [
        0.0040557663887739182,
        0.0040557663887739182
      ]
    },
    {
      "bufferView": 5,
      "componentType": 5125,
      "count": 36,
      "type": "SCALAR",
      "max": [
        23.0
      ],
      "min": [
        0.0
      ]
    },
    {
      "bufferView": 6,
      "componentType": 5126,
      "count": 4999,
      "type": "VEC3",
      "max": [
        0.082646019756793976,
        0.3856373131275177,
        0.019293023273348808
      ],
      "min": [
        0.029855662956833839,
        0.329446017742157,
        -0.019293516874313354
      ]
    },
    {
      "bufferView": 7,
      "componentType": 5126,
      "count": 4999,
      "type": "VEC3",
      "max": [
        1.0,
        1.0,
        1.0
      ],
      "min": [
        -1.0,
        -1.0,
        -1.0
      ]
    },
    {
      "bufferView": 8,
      "componentType": 5126,
      "count": 4999,
      "type": "VEC4",
      "max": [
        1.0,
        1.0,
        1.0,
        1.0
      ],
      "min": [
        -1.0,
        -1.0,
        -1.0,
        -1.0
      ]
    },
    {
      "bufferView": 9,
      "componentType": 5126,
      "count": 4999,
      "type": "VEC2",
      "max": [
        1.0,
        1.0
      ],
      "min": [
        0.0,
        0.0
      ]
    },
    {
      "bufferView": 10,
      "componentType": 5125,
      "count": 15828,
      "type": "SCALAR",
      "max": [
        4998.0
      ],
      "min": [
        0.0
      ]
    },
    {
      "bufferView": 11,
      "componentType": 5126,
      "count": 3383,
      "type": "VEC3",
      "max": [
        0.082646392285823822,
        0.36567997932434082,
        0.019293218851089478
      ],
      "min": [
        0.035283535718917847,
        0.32929319143295288,
        -0.019293485209345818
      ]
    },
    {
      "bufferView": 12,
      "componentType": 5126,
      "count": 3383,
      "type": "VEC3",
      "max": [
        1.0,
        1.0,
        1.0
      ],
      "min": [
        -1.0,
        -1.0,
        -1.0
      ]
    },
    {
      "bufferView": 13,
      "componentType": 5126,
      "count": 3383,
      "type": "VEC4",
      "max": [
        1.0,
        1.0,
        1.0,
        1.0
      ],
      "min": [
        -1.0,
        -1.0,
        -1.0,
        -1.0
      ]
    },
    {
      "bufferView": 14,
      "componentType": 5126,
      "count": 3383,
      "type": "VEC2",
      "max": [
        0.99700075387954712,
        0.99390727281570435
      ],
      "min": [
        0.0,
        0.0
      ]
    },
    {
      "bufferView": 15,
      "componentType": 5125,
      "count": 10701,
      "type": "SCALAR",
      "max": [
        3382.0
      ],
      "min": [
        0.0
      ]
    }
  ],
  "asset": {
    "generator": "Plattar UnityGLTF (2019.4.32f1)",
    "version": "2.0"
  },
  "buffers": [
    {
      "uri": "MyCobotPi_J4.bin",
      "byteLength": 509940
    }
  ],
  "bufferViews": [
    {
      "buffer": 0,
      "byteLength": 288
    },
    {
      "buffer": 0,
      "byteOffset": 288,
      "byteLength": 288
    },
    {
      "buffer": 0,
      "byteOffset": 576,
      "byteLength": 384
    },
    {
      "buffer": 0,
      "byteOffset": 960,
      "byteLength": 192
    },
    {
      "buffer": 0,
      "byteOffset": 1152,
      "byteLength": 192
    },
    {
      "buffer": 0,
      "byteOffset": 1344,
      "byteLength": 144
    },
    {
      "buffer": 0,
      "byteOffset": 1488,
      "byteLength": 59988
    },
    {
      "buffer": 0,
      "byteOffset": 61476,
      "byteLength": 59988
    },
    {
      "buffer": 0,
      "byteOffset": 121464,
      "byteLength": 79984
    },
    {
      "buffer": 0,
      "byteOffset": 201448,
      "byteLength": 39992
    },
    {
      "buffer": 0,
      "byteOffset": 241440,
      "byteLength": 63312
    },
    {
      "buffer": 0,
      "byteOffset": 304752,
      "byteLength": 40596
    },
    {
      "buffer": 0,
      "byteOffset": 345348,
      "byteLength": 40596
    },
    {
      "buffer": 0,
      "byteOffset": 385944,
      "byteLength": 54128
    },
    {
      "buffer": 0,
      "byteOffset": 440072,
      "byteLength": 27064
    },
    {
      "buffer": 0,
      "byteOffset": 467136,
      "byteLength": 42804
    }
  ],
  "materials": [
    {
      "pbrMetallicRoughness": {
        "baseColorFactor": [
          1.0,
          0.0,
          0.237829685,
          0.784313738
        ],
        "metallicFactor": 0.0,
        "roughnessFactor": 0.5
      },
      "alphaMode": "BLEND",
      "name": "MyCobotPiJoint"
    },
    {
      "pbrMetallicRoughness": {
        "baseColorFactor": [
          0.317061245,
          0.5907391,
          0.8962264,
          0.5019608
        ],
        "metallicFactor": 0.699999988079071,
        "roughnessFactor": 0.5
      },
      "alphaMode": "BLEND",
      "name": "MyCobotPi"
    }
  ],
  "meshes": [
    {
      "primitives": [
        {
          "attributes": {
            "POSITION": 0,
            "NORMAL": 1,
            "TANGENT": 2,
            "TEXCOORD_0": 3,
            "TEXCOORD_1": 4
          },
          "indices": 5,
          "material": 0
        }
      ],
      "name": "J4_Cube"
    },
    {
      "primitives": [
        {
          "attributes": {
            "POSITION": 6,
            "NORMAL": 7,
            "TANGENT": 8,
            "TEXCOORD_0": 9
          },
          "indices": 10,
          "material": 1
        }
      ],
      "name": "polySurface170"
    },
    {
      "primitives": [
        {
          "attributes": {
            "POSITION": 11,
            "NORMAL": 12,
            "TANGENT": 13,
            "TEXCOORD_0": 14
          },
          "indices": 15,
          "material": 1
        }
      ],
      "name": "polySurface171"
    }
  ],
  "nodes": [
    {
      "children": [
        1,
        2,
        3
      ],
      "rotation": [
        0.7071068,
        0.0,
        0.0,
        0.7071068
      ],
      "scale": [
        1.0,
        1.00000024,
        1.00000024
      ],
      "name": "MyCobotPi_J4"
    },
    {
      "mesh": 0,
      "rotation": [
        -0.7071068,
        0.0,
        0.0,
        0.7071068
      ],
      "scale": [
        0.009999997,
        0.009999995,
        0.009999995
      ],
      "name": "J4_Cube"
    },
    {
      "mesh": 1,
      "rotation": [
        -0.7071068,
        0.0,
        0.0,
        0.7071068
      ],
      "translation": [
        0.0,
        0.0,
        0.347900331
      ],
      "name": "polySurface170"
    },
    {
      "mesh": 2,
      "rotation": [
        -0.7071068,
        0.0,
        0.0,
        0.7071068
      ],
      "translation": [
        0.0,
        0.0,
        0.347900331
      ],
      "name": "polySurface171"
    }
  ],
  "scene": 0,
  "scenes": [
    {
      "nodes": [
        0
      ],
      "name": "MyCobotPi_J4"
    }
  ]
}