{
  "accessors": [
    {
      "bufferView": 0,
      "componentType": 5126,
      "count": 24,
      "type": "VEC3",
      "max": [
        0.5,
        0.5,
        0.5
      ],
      "min": [
        -0.5,
        -0.5,
        -0.5
      ]
    },
    {
      "bufferView": 1,
      "componentType": 5126,
      "count": 24,
      "type": "VEC3",
      "max": [
        1.0,
        1.0,
        1.0
      ],
      "min": [
        -1.0,
        -1.0,
        -1.0
      ]
    },
    {
      "bufferView": 2,
      "componentType": 5126,
      "count": 24,
      "type": "VEC4",
      "max": [
        0.0,
        0.0,
        1.0,
        -1.0
      ],
      "min": [
        -1.0,
        0.0,
        -1.0,
        -1.0
      ]
    },
    {
      "bufferView": 3,
      "componentType": 5126,
      "count": 24,
      "type": "VEC2",
      "max": [
        1.0,
        1.0
      ],
      "min": [
        0.0,
        0.0
      ]
    },
    {
      "bufferView": 4,
      "componentType": 5126,
      "count": 24,
      "type": "VEC2",
      "max": [
        0.9966580867767334,
        0.65283584594726563
      ],
      "min": [
        0.0040557663887739182,
        0.0040557663887739182
      ]
    },
    {
      "bufferView": 5,
      "componentType": 5125,
      "count": 36,
      "type": "SCALAR",
      "max": [
        23.0
      ],
      "min": [
        0.0
      ]
    },
    {
      "bufferView": 6,
      "componentType": 5126,
      "count": 7399,
      "type": "VEC3",
      "max": [
        0.082310356199741364,
        0.44246536493301392,
        0.045599833130836487
      ],
      "min": [
        0.04448096826672554,
        0.40464264154434204,
        0.026299826800823212
      ]
    },
    {
      "bufferView": 7,
      "componentType": 5126,
      "count": 7399,
      "type": "VEC3",
      "max": [
        1.0,
        1.0,
        1.0
      ],
      "min": [
        -1.0,
        -1.0,
        -1.0
      ]
    },
    {
      "bufferView": 8,
      "componentType": 5126,
      "count": 7399,
      "type": "VEC4",
      "max": [
        1.0,
        1.0,
        1.0,
        1.0
      ],
      "min": [
        -1.0,
        -1.0,
        -1.0,
        -1.0
      ]
    },
    {
      "bufferView": 9,
      "componentType": 5126,
      "count": 7399,
      "type": "VEC2",
      "max": [
        0.98206490278244019,
        0.99853515625
      ],
      "min": [
        0.0,
        0.0
      ]
    },
    {
      "bufferView": 10,
      "componentType": 5125,
      "count": 20400,
      "type": "SCALAR",
      "max": [
        7398.0
      ],
      "min": [
        0.0
      ]
    }
  ],
  "asset": {
    "generator": "Plattar UnityGLTF (2019.4.32f1)",
    "version": "2.0"
  },
  "buffers": [
    {
      "uri": "MyCobotPi_J6.bin",
      "byteLength": 438240
    }
  ],
  "bufferViews": [
    {
      "buffer": 0,
      "byteLength": 288
    },
    {
      "buffer": 0,
      "byteOffset": 288,
      "byteLength": 288
    },
    {
      "buffer": 0,
      "byteOffset": 576,
      "byteLength": 384
    },
    {
      "buffer": 0,
      "byteOffset": 960,
      "byteLength": 192
    },
    {
      "buffer": 0,
      "byteOffset": 1152,
      "byteLength": 192
    },
    {
      "buffer": 0,
      "byteOffset": 1344,
      "byteLength": 144
    },
    {
      "buffer": 0,
      "byteOffset": 1488,
      "byteLength": 88788
    },
    {
      "buffer": 0,
      "byteOffset": 90276,
      "byteLength": 88788
    },
    {
      "buffer": 0,
      "byteOffset": 179064,
      "byteLength": 118384
    },
    {
      "buffer": 0,
      "byteOffset": 297448,
      "byteLength": 59192
    },
    {
      "buffer": 0,
      "byteOffset": 356640,
      "byteLength": 81600
    }
  ],
  "materials": [
    {
      "pbrMetallicRoughness": {
        "baseColorFactor": [
          1.0,
          0.0,
          0.237829685,
          0.784313738
        ],
        "metallicFactor": 0.0,
        "roughnessFactor": 0.5
      },
      "alphaMode": "BLEND",
      "name": "MyCobotPiJoint"
    },
    {
      "pbrMetallicRoughness": {
        "baseColorFactor": [
          0.317061245,
          0.5907391,
          0.8962264,
          0.5019608
        ],
        "metallicFactor": 0.699999988079071,
        "roughnessFactor": 0.5
      },
      "alphaMode": "BLEND",
      "name": "MyCobotPi"
    }
  ],
  "meshes": [
    {
      "primitives": [
        {
          "attributes": {
            "POSITION": 0,
            "NORMAL": 1,
            "TANGENT": 2,
            "TEXCOORD_0": 3,
            "TEXCOORD_1": 4
          },
          "indices": 5,
          "material": 0
        }
      ],
      "name": "J6_Cube"
    },
    {
      "primitives": [
        {
          "attributes": {
            "POSITION": 6,
            "NORMAL": 7,
            "TANGENT": 8,
            "TEXCOORD_0": 9
          },
          "indices": 10,
          "material": 1
        }
      ],
      "name": "polySurface157"
    }
  ],
  "nodes": [
    {
      "children": [
        1,
        2,
        3
      ],
      "name": "MyCobotPi_J6"
    },
    {
      "mesh": 0,
      "rotation": [
        0.7071068,
        0.0,
        0.0,
        -0.7071068
      ],
      "scale": [
        0.01,
        0.0100000035,
        0.0100000044
      ],
      "name": "J6_Cube"
    },
    {
      "mesh": 1,
      "rotation": [
        0.0,
        0.0,
        -0.7071068,
        -0.7071068
      ],
      "translation": [
        0.4240001,
        -0.06339995,
        0.0
      ],
      "name": "polySurface157"
    },
    {
      "mesh": 0,
      "rotation": [
        0.7071068,
        0.0,
        0.0,
        -0.7071068
      ],
      "scale": [
        0.01,
        0.0100000035,
        0.0100000044
      ],
      "translation": [
        0.0,
        0.0,
        -0.0500000119
      ],
      "name": "End_Cube"
    }
  ],
  "scene": 0,
  "scenes": [
    {
      "nodes": [
        0
      ],
      "name": "MyCobotPi_J6"
    }
  ]
}