{
  "accessors": [
    {
      "bufferView": 0,
      "componentType": 5126,
      "count": 24,
      "type": "VEC3",
      "max": [
        0.5,
        0.5,
        0.5
      ],
      "min": [
        -0.5,
        -0.5,
        -0.5
      ]
    },
    {
      "bufferView": 1,
      "componentType": 5126,
      "count": 24,
      "type": "VEC3",
      "max": [
        1.0,
        1.0,
        1.0
      ],
      "min": [
        -1.0,
        -1.0,
        -1.0
      ]
    },
    {
      "bufferView": 2,
      "componentType": 5126,
      "count": 24,
      "type": "VEC4",
      "max": [
        0.0,
        0.0,
        1.0,
        -1.0
      ],
      "min": [
        -1.0,
        0.0,
        -1.0,
        -1.0
      ]
    },
    {
      "bufferView": 3,
      "componentType": 5126,
      "count": 24,
      "type": "VEC2",
      "max": [
        1.0,
        1.0
      ],
      "min": [
        0.0,
        0.0
      ]
    },
    {
      "bufferView": 4,
      "componentType": 5126,
      "count": 24,
      "type": "VEC2",
      "max": [
        0.9966580867767334,
        0.65283584594726563
      ],
      "min": [
        0.0040557663887739182,
        0.0040557663887739182
      ]
    },
    {
      "bufferView": 5,
      "componentType": 5125,
      "count": 36,
      "type": "SCALAR",
      "max": [
        23.0
      ],
      "min": [
        0.0
      ]
    },
    {
      "bufferView": 6,
      "componentType": 5126,
      "count": 2864,
      "type": "VEC3",
      "max": [
        0.018380096182227135,
        0.16688711941242218,
        0.02427750825881958
      ],
      "min": [
        -0.024139555171132088,
        0.089002393186092377,
        -0.024277832359075546
      ]
    },
    {
      "bufferView": 7,
      "componentType": 5126,
      "count": 2864,
      "type": "VEC3",
      "max": [
        1.0,
        1.0,
        1.0
      ],
      "min": [
        -1.0,
        -1.0,
        -1.0
      ]
    },
    {
      "bufferView": 8,
      "componentType": 5126,
      "count": 2864,
      "type": "VEC4",
      "max": [
        1.0,
        1.0,
        1.0,
        1.0
      ],
      "min": [
        -1.0,
        -1.0,
        -1.0,
        -1.0
      ]
    },
    {
      "bufferView": 9,
      "componentType": 5126,
      "count": 2864,
      "type": "VEC2",
      "max": [
        0.99853515625,
        0.99853515625
      ],
      "min": [
        0.0,
        0.0
      ]
    },
    {
      "bufferView": 10,
      "componentType": 5125,
      "count": 8700,
      "type": "SCALAR",
      "max": [
        2863.0
      ],
      "min": [
        0.0
      ]
    },
    {
      "bufferView": 11,
      "componentType": 5126,
      "count": 8033,
      "type": "VEC3",
      "max": [
        0.040720082819461823,
        0.16688711941242218,
        0.024276593700051308
      ],
      "min": [
        -0.024139553308486938,
        0.081977330148220062,
        -0.024277830496430397
      ]
    },
    {
      "bufferView": 12,
      "componentType": 5126,
      "count": 8033,
      "type": "VEC3",
      "max": [
        1.0,
        1.0,
        1.0
      ],
      "min": [
        -1.0,
        -1.0,
        -1.0
      ]
    },
    {
      "bufferView": 13,
      "componentType": 5126,
      "count": 8033,
      "type": "VEC4",
      "max": [
        1.0,
        1.0,
        1.0,
        1.0
      ],
      "min": [
        -1.0,
        -1.0,
        -1.0,
        -1.0
      ]
    },
    {
      "bufferView": 14,
      "componentType": 5126,
      "count": 8033,
      "type": "VEC2",
      "max": [
        0.99607181549072266,
        0.99853515625
      ],
      "min": [
        0.0,
        0.0
      ]
    },
    {
      "bufferView": 15,
      "componentType": 5125,
      "count": 23958,
      "type": "SCALAR",
      "max": [
        8032.0
      ],
      "min": [
        0.0
      ]
    }
  ],
  "asset": {
    "generator": "Plattar UnityGLTF (2019.4.32f1)",
    "version": "2.0"
  },
  "buffers": [
    {
      "uri": "MyCobotPi_J1.bin",
      "byteLength": 655176
    }
  ],
  "bufferViews": [
    {
      "buffer": 0,
      "byteLength": 288
    },
    {
      "buffer": 0,
      "byteOffset": 288,
      "byteLength": 288
    },
    {
      "buffer": 0,
      "byteOffset": 576,
      "byteLength": 384
    },
    {
      "buffer": 0,
      "byteOffset": 960,
      "byteLength": 192
    },
    {
      "buffer": 0,
      "byteOffset": 1152,
      "byteLength": 192
    },
    {
      "buffer": 0,
      "byteOffset": 1344,
      "byteLength": 144
    },
    {
      "buffer": 0,
      "byteOffset": 1488,
      "byteLength": 34368
    },
    {
      "buffer": 0,
      "byteOffset": 35856,
      "byteLength": 34368
    },
    {
      "buffer": 0,
      "byteOffset": 70224,
      "byteLength": 45824
    },
    {
      "buffer": 0,
      "byteOffset": 116048,
      "byteLength": 22912
    },
    {
      "buffer": 0,
      "byteOffset": 138960,
      "byteLength": 34800
    },
    {
      "buffer": 0,
      "byteOffset": 173760,
      "byteLength": 96396
    },
    {
      "buffer": 0,
      "byteOffset": 270156,
      "byteLength": 96396
    },
    {
      "buffer": 0,
      "byteOffset": 366552,
      "byteLength": 128528
    },
    {
      "buffer": 0,
      "byteOffset": 495080,
      "byteLength": 64264
    },
    {
      "buffer": 0,
      "byteOffset": 559344,
      "byteLength": 95832
    }
  ],
  "materials": [
    {
      "pbrMetallicRoughness": {
        "baseColorFactor": [
          1.0,
          0.0,
          0.237829685,
          0.784313738
        ],
        "metallicFactor": 0.0,
        "roughnessFactor": 0.5
      },
      "alphaMode": "BLEND",
      "name": "MyCobotPiJoint"
    },
    {
      "pbrMetallicRoughness": {
        "baseColorFactor": [
          0.317061245,
          0.5907391,
          0.8962264,
          0.5019608
        ],
        "metallicFactor": 0.699999988079071,
        "roughnessFactor": 0.5
      },
      "alphaMode": "BLEND",
      "name": "MyCobotPi"
    }
  ],
  "meshes": [
    {
      "primitives": [
        {
          "attributes": {
            "POSITION": 0,
            "NORMAL": 1,
            "TANGENT": 2,
            "TEXCOORD_0": 3,
            "TEXCOORD_1": 4
          },
          "indices": 5,
          "material": 0
        }
      ],
      "name": "J1_Cube"
    },
    {
      "primitives": [
        {
          "attributes": {
            "POSITION": 6,
            "NORMAL": 7,
            "TANGENT": 8,
            "TEXCOORD_0": 9
          },
          "indices": 10,
          "material": 1
        }
      ],
      "name": "polySurface174"
    },
    {
      "primitives": [
        {
          "attributes": {
            "POSITION": 11,
            "NORMAL": 12,
            "TANGENT": 13,
            "TEXCOORD_0": 14
          },
          "indices": 15,
          "material": 1
        }
      ],
      "name": "polySurface148"
    }
  ],
  "nodes": [
    {
      "children": [
        1,
        2,
        3
      ],
      "rotation": [
        0.0,
        0.0,
        0.0,
        -1.0
      ],
      "name": "MyCobotPi_J1"
    },
    {
      "mesh": 0,
      "rotation": [
        0.0,
        0.0,
        0.0,
        -1.0
      ],
      "scale": [
        0.01,
        0.01,
        0.01
      ],
      "name": "J1_Cube"
    },
    {
      "mesh": 1,
      "rotation": [
        0.0,
        0.0,
        0.0,
        -1.0
      ],
      "name": "polySurface174"
    },
    {
      "mesh": 2,
      "rotation": [
        0.0,
        0.0,
        0.0,
        -1.0
      ],
      "name": "polySurface148"
    }
  ],
  "scene": 0,
  "scenes": [
    {
      "nodes": [
        0
      ],
      "name": "MyCobotPi_J1"
    }
  ]
}